<svg width="40" height="41" viewBox="0 0 40 41" fill="none" xmlns="http://www.w3.org/2000/svg">
<path fill-rule="evenodd" clip-rule="evenodd" d="M20.3099 8.75204C16.4797 8.75204 14.9834 14.2437 14.9834 20.7873C14.9834 27.3341 16.4797 32.752 20.3099 32.752C22.6093 32.752 24.5686 31.3899 24.5756 30.2707C24.5756 30.0263 24.4829 29.7926 24.2799 29.5873C23.1909 28.5232 22.7656 27.4587 22.7601 26.5196C22.7545 24.7264 24.2928 23.3917 25.7089 23.3917C27.6586 23.3917 28.8075 24.941 28.8075 26.9465C28.8075 28.847 28.0059 30.4321 27.136 31.6992C27.1014 31.7509 27.0866 31.8083 27.0866 31.8592C27.0866 31.9571 27.1443 32.0397 27.2314 32.0397C27.2849 32.0397 27.3463 32.0112 27.4127 31.9436L37.1995 22.3724C37.6871 21.9502 37.9998 21.4567 37.9998 20.7537C37.9998 20.0488 37.6871 19.5552 37.1995 19.1359L27.4127 9.56142C27.3463 9.49564 27.2849 9.46579 27.2314 9.46579C27.1424 9.46579 27.0866 9.54883 27.0866 9.64819C27.0866 9.69951 27.1014 9.75688 27.136 9.8096C28.0059 11.0757 28.8075 12.6608 28.8075 14.559C28.8075 16.564 27.6586 18.1161 25.7089 18.1161C24.2928 18.1161 22.7545 16.7796 22.7601 14.9863C22.7656 14.0491 23.1909 12.9837 24.2799 11.92C24.4829 11.7139 24.5756 11.4811 24.5756 11.2357C24.5686 10.1156 22.6093 8.75204 20.3099 8.75204Z" fill="#254F9A"/>
<path fill-rule="evenodd" clip-rule="evenodd" d="M12.3024 9.43796C12.3625 9.37644 12.4218 9.35165 12.4721 9.35165C12.5623 9.35165 12.6251 9.43337 12.623 9.53299C12.6198 9.59267 12.5946 9.6574 12.5376 9.71525C10.3038 12.5561 8.6782 15.8785 8.6782 20.4854C8.6782 25.0905 10.3038 28.3472 12.5376 31.1876C12.5946 31.245 12.6198 31.3134 12.623 31.3703C12.6251 31.4704 12.5623 31.5517 12.4721 31.5517C12.4218 31.5517 12.3625 31.5273 12.3024 31.4644L2.77843 22.0454C2.30347 21.6299 2 21.1446 2 20.4523C2 19.7587 2.30347 19.273 2.77843 18.8602L12.3024 9.43796Z" fill="#C20016"/>
</svg>
