<?xml version="1.0" encoding="utf-8"?>
<!-- Generator: Adobe Illustrator 24.0.2, SVG Export Plug-In . SVG Version: 6.00 Build 0)  -->
<svg version="1.1" id="Capa_1" xmlns="http://www.w3.org/2000/svg" xmlns:xlink="http://www.w3.org/1999/xlink" x="0px" y="0px"
	 viewBox="0 0 270.2 96.9" style="enable-background:new 0 0 270.2 96.9;" xml:space="preserve">
<style type="text/css">
	.st0{fill:#F97316;}
</style>
<g>
	<path class="st0" d="M89.4,55.2l3.8,2.5c0.7,0.4,0.8,1.3,0.4,2c0,0.1-0.1,0.1-0.2,0.2c-2.9,3-7,4.7-11.2,4.6
		c-9.6,0-16.4-7.7-15.3-17.8c0.7-7.2,6.5-12.9,13.7-13.6c4.7-0.5,9.4,1.1,12.7,4.5c0.5,0.6,0.5,1.5,0,2c-0.1,0.1-0.1,0.1-0.2,0.2
		l-3.8,2.5c-0.5,0.4-1.3,0.3-1.7-0.1c-1.5-1.3-3.4-2-5.3-2c-5.3,0-8,4.2-8,8.5s2.7,8.6,8,8.6c2,0.1,3.9-0.7,5.3-2
		C88.2,54.9,88.9,54.8,89.4,55.2z"/>
	<path class="st0" d="M126.6,46.8c1,10-5.7,17.7-15.3,17.7c-8.9,0-15.4-6.7-15.4-15.7c0-9.5,7.2-16.4,16.9-15.6
		C119.6,33.7,125.9,40,126.6,46.8z M119.2,48.8c0-4.3-2.7-8.5-8-8.5s-7.9,4.3-7.9,8.5s2.7,8.6,8,8.6S119.2,53.1,119.2,48.8z"/>
	<path class="st0" d="M148.2,63.2l-4.7-9.3h-4.7v8.7c0,0.8-0.6,1.4-1.4,1.5c0,0,0,0-0.1,0h-4.6c-0.8,0-1.4-0.6-1.4-1.4
		c0,0,0,0,0-0.1V35.1c0-0.8,0.6-1.4,1.4-1.4H143c7.7,0,11.6,4.4,11.6,10.5c0.1,3.3-1.7,6.4-4.7,8l5.3,9.7c0.4,0.7,0.1,1.5-0.5,1.9
		c-0.2,0.1-0.5,0.2-0.7,0.2h-4.6C148.9,63.9,148.4,63.6,148.2,63.2z M138.8,47.6h4.2c2.2,0,4.2-0.9,4.2-3.5c0-2.3-1.7-3.5-4.2-3.5
		h-4.2V47.6z"/>
	<path class="st0" d="M186.8,48.8c0,9.3-6,15.2-16.1,15.2h-9.1c-0.9,0-1.6-0.7-1.6-1.5c0,0,0,0,0,0V35.2c0-0.9,0.7-1.5,1.6-1.5h9.1
		C180.8,33.6,186.8,39.6,186.8,48.8z M179.4,48.8c0-5.4-3.7-8.1-8.7-8.1h-3.2V57h3.2C175.6,57,179.3,54.2,179.4,48.8L179.4,48.8z"/>
	<path class="st0" d="M198.8,35.1v27.4c0,0.8-0.6,1.4-1.4,1.4c0,0,0,0,0,0h-4.6c-0.8,0-1.4-0.6-1.4-1.4c0,0,0,0,0,0V35.1
		c0-0.8,0.6-1.4,1.4-1.4h4.6C198.2,33.6,198.8,34.3,198.8,35.1z"/>
	<path class="st0" d="M223.4,58.4v4.1c0,0.8-0.6,1.4-1.4,1.4c0,0,0,0,0,0h-16.2c-0.8,0-1.4-0.6-1.4-1.4c0,0,0,0,0,0V35.1
		c0-0.8,0.6-1.4,1.4-1.4h15.8c0.8,0,1.4,0.6,1.4,1.4v4.2c0,0.8-0.6,1.4-1.4,1.4c0,0,0,0,0,0h-9.8v4.7h8.5c0.8,0,1.4,0.6,1.4,1.4v3.8
		c0,0.8-0.6,1.4-1.4,1.4h-8.5v5H222C222.8,57,223.4,57.6,223.4,58.4C223.4,58.4,223.4,58.4,223.4,58.4z"/>
	<path class="st0" d="M251.3,58.4v4.1c0,0.8-0.6,1.4-1.4,1.4h-20.1c-0.8,0-1.4-0.7-1.4-1.4v-4.3c0-0.3,0.1-0.6,0.3-0.8L241,40.6
		h-10.9c-0.8,0-1.4-0.6-1.4-1.4v-4.1c0-0.8,0.6-1.4,1.4-1.4h18.9c0.8,0,1.4,0.6,1.4,1.4v4.3c0,0.3-0.1,0.6-0.3,0.8L237.8,57h12.1
		C250.6,57,251.3,57.6,251.3,58.4z"/>
	<path class="st0" d="M58.8,51.8L58.8,51.8L58.8,51.8L47.4,32l0,0l0,0c-1-1.5-2.4-2.2-5.7-2.2l13.7,23.7c0.9,1.5,0.4,3.4-1.1,4.3
		c0,0,0,0-0.1,0c-0.5,0.3-1,0.4-1.6,0.4h-5.7l0.1,0.1c0.9,1.7,2.3,2.9,4.1,3.5c1.7,0.4,3.5,0.2,5-0.7C60.7,58.7,59.9,54,58.8,51.8"
		/>
	<path class="st0" d="M38.1,35.7c-0.5-0.9-1.7-1.2-2.6-0.7c-0.8,0.5-1.1,1.5-0.7,2.4c0,0,0.1,0.1,0.1,0.1l0,0l8.8,15.2h4.2
		L38.1,35.7z"/>
	<path class="st0" d="M25.1,60.1c0-0.5,0.1-1.1,0.4-1.5l2.9-5h-0.1c-0.3,0.1-2.9-0.5-4.9,1.5c-1.3,1.4-2.1,3.2-2.1,5.1
		c0,5.2,4.6,6.8,7,6.9h22.2c1.9,0,3.6-0.9,4.3-3.8H28.3C27.7,63.3,25.1,62.9,25.1,60.1"/>
	<path class="st0" d="M35.2,53.6L33,57.4h19.8c1,0,1.9-0.8,1.9-1.9c0-1-0.8-1.9-1.9-1.9H35.2z"/>
	<path class="st0" d="M37.6,33.7c0.3,0.2,0.6,0.4,0.8,0.6c0.2,0.2,0.3,0.4,0.5,0.6l3.1,5.4l0.1-0.1c0.9-1.5,1.7-2.8,1-5.5
		c-0.5-1.6-1.7-3-3.2-3.8c-1.4-0.8-3-1.2-4.5-1c-2.2,0.3-4.1,1.6-5.3,3.4v0l0,0L19.2,52.1l0,0l0,0c-0.6,1.8-0.1,3.9,1.4,5.2
		l12.8-22.2c0.5-0.9,1.4-1.6,2.5-1.8C36.4,33.3,37,33.5,37.6,33.7z"/>
	<path class="st0" d="M27.3,61.9c0.9,0.5,2,0.2,2.6-0.7l8.9-15.4L36.6,42l-10,17.4C26.1,60.2,26.4,61.4,27.3,61.9
		C27.3,61.9,27.3,61.9,27.3,61.9"/>
</g>
</svg>
